HIERARCHY
ROOT Hips
{
	OFFSET 0.000000 0.794594 0.001814
	CHANNELS 6 Xposition Yposition Zposition Zrotation Xrotation Yrotation
	JOINT Spine
	{
		OFFSET -0.000000 0.051920 0.010783
		CHANNELS 3 Zrotation Xrotation Yrotation
		JOINT Chest
		{
			OFFSET 0.000000 0.111800 0.002643
			CHANNELS 3 Zrotation Xrotation Yrotation
			JOINT UpperChest
			{
				OFFSET 0.000011 0.124994 0.000757
				CHANNELS 3 Zrotation Xrotation Yrotation
				JOINT Neck
				{
					OFFSET 0.000112 0.117645 -0.020286
					CHANNELS 3 Zrotation Xrotation Yrotation
					JOINT Head
					{
						OFFSET 0.000009 0.074358 -0.000161
						CHANNELS 3 Zrotation Xrotation Yrotation
						JOINT LeftEye
						{
							OFFSET 0.019846 0.051735 0.040589
							CHANNELS 3 Zrotation Xrotation Yrotation
							End Site
							{
								OFFSET -0.000199 0.054090 0.042333
							}
						}
						JOINT RightEye
						{
							OFFSET -0.020226 0.051740 0.040395
							CHANNELS 3 Zrotation Xrotation Yrotation
							End Site
							{
								OFFSET -0.000199 0.054090 0.042333
							}
						}
					}
				}
				JOINT LeftShoulder
				{
					OFFSET 0.022481 0.089795 -0.017340
					CHANNELS 3 Zrotation Xrotation Yrotation
					JOINT LeftUpperArm
					{
						OFFSET 0.087730 -0.000010 0.000425
						CHANNELS 3 Zrotation Xrotation Yrotation
						JOINT LeftLowerArm
						{
							OFFSET 0.210364 0.001461 0.000713
							CHANNELS 3 Zrotation Xrotation Yrotation
							JOINT LeftHand
							{
								OFFSET 0.205444 0.001377 0.000711
								CHANNELS 3 Zrotation Xrotation Yrotation
								JOINT LeftIndexProximal
								{
									OFFSET 0.064499 0.001525 0.020305
									CHANNELS 3 Zrotation Xrotation Yrotation
									JOINT LeftIndexIntermediate
									{
										OFFSET 0.033222 0.000012 0.000212
										CHANNELS 3 Zrotation Xrotation Yrotation
										JOINT LeftIndexDistal
										{
											OFFSET 0.020455 0.000007 0.000130
											CHANNELS 3 Zrotation Xrotation Yrotation
											End Site
											{
												OFFSET 0.020455 0.000007 0.000130
											}
										}
									}
								}
								JOINT LeftLittleProximal
								{
									OFFSET 0.062854 -0.001936 -0.027845
									CHANNELS 3 Zrotation Xrotation Yrotation
									JOINT LeftLittleIntermediate
									{
										OFFSET 0.031399 0.000011 0.000200
										CHANNELS 3 Zrotation Xrotation Yrotation
										JOINT LeftLittleDistal
										{
											OFFSET 0.018096 0.000006 0.000115
											CHANNELS 3 Zrotation Xrotation Yrotation
											End Site
											{
												OFFSET 0.018096 0.000006 0.000115
											}
										}
									}
								}
								JOINT LeftMiddleProximal
								{
									OFFSET 0.066609 0.003801 0.003549
									CHANNELS 3 Zrotation Xrotation Yrotation
									JOINT LeftMiddleIntermediate
									{
										OFFSET 0.037005 0.000013 0.000236
										CHANNELS 3 Zrotation Xrotation Yrotation
										JOINT LeftMiddleDistal
										{
											OFFSET 0.022829 0.000008 0.000145
											CHANNELS 3 Zrotation Xrotation Yrotation
											End Site
											{
												OFFSET 0.022829 0.000008 0.000145
											}
										}
									}
								}
								JOINT LeftRingProximal
								{
									OFFSET 0.066900 0.003343 -0.012193
									CHANNELS 3 Zrotation Xrotation Yrotation
									JOINT LeftRingIntermediate
									{
										OFFSET 0.034327 0.000012 0.000219
										CHANNELS 3 Zrotation Xrotation Yrotation
										JOINT LeftRingDistal
										{
											OFFSET 0.019811 0.000007 0.000126
											CHANNELS 3 Zrotation Xrotation Yrotation
											End Site
											{
												OFFSET 0.019811 0.000007 0.000126
											}
										}
									}
								}
								JOINT LeftThumbProximal
								{
									OFFSET 0.001848 -0.006641 0.017858
									CHANNELS 3 Zrotation Xrotation Yrotation
									JOINT LeftThumbIntermediate
									{
										OFFSET 0.030326 -0.003605 0.035110
										CHANNELS 3 Zrotation Xrotation Yrotation
										JOINT LeftThumbDistal
										{
											OFFSET 0.019149 -0.004135 0.020870
											CHANNELS 3 Zrotation Xrotation Yrotation
											End Site
											{
												OFFSET 0.019149 -0.004134 0.020871
											}
										}
									}
								}
							}
						}
					}
				}
				JOINT RightShoulder
				{
					OFFSET -0.022291 0.089803 -0.017557
					CHANNELS 3 Zrotation Xrotation Yrotation
					JOINT RightUpperArm
					{
						OFFSET -0.087729 0.000010 -0.000425
						CHANNELS 3 Zrotation Xrotation Yrotation
						JOINT RightLowerArm
						{
							OFFSET -0.210401 0.000107 -0.000861
							CHANNELS 3 Zrotation Xrotation Yrotation
							JOINT RightHand
							{
								OFFSET -0.205447 0.000040 -0.000840
								CHANNELS 3 Zrotation Xrotation Yrotation
								JOINT RightIndexProximal
								{
									OFFSET -0.064690 0.001511 0.019688
									CHANNELS 3 Zrotation Xrotation Yrotation
									JOINT RightIndexIntermediate
									{
										OFFSET -0.033222 0.000005 -0.000106
										CHANNELS 3 Zrotation Xrotation Yrotation
										JOINT RightIndexDistal
										{
											OFFSET -0.020455 0.000003 -0.000065
											CHANNELS 3 Zrotation Xrotation Yrotation
											End Site
											{
												OFFSET -0.020455 0.000003 -0.000065
											}
										}
									}
								}
								JOINT RightLittleProximal
								{
									OFFSET -0.062585 -0.001949 -0.028444
									CHANNELS 3 Zrotation Xrotation Yrotation
									JOINT RightLittleIntermediate
									{
										OFFSET -0.031399 0.000005 -0.000100
										CHANNELS 3 Zrotation Xrotation Yrotation
										JOINT RightLittleDistal
										{
											OFFSET -0.018096 0.000003 -0.000057
											CHANNELS 3 Zrotation Xrotation Yrotation
											End Site
											{
												OFFSET -0.018096 0.000003 -0.000057
											}
										}
									}
								}
								JOINT RightMiddleProximal
								{
									OFFSET -0.066640 0.003787 0.002913
									CHANNELS 3 Zrotation Xrotation Yrotation
									JOINT RightMiddleIntermediate
									{
										OFFSET -0.037006 0.000005 -0.000118
										CHANNELS 3 Zrotation Xrotation Yrotation
										JOINT RightMiddleDistal
										{
											OFFSET -0.022829 0.000003 -0.000072
											CHANNELS 3 Zrotation Xrotation Yrotation
											End Site
											{
												OFFSET -0.022829 0.000003 -0.000072
											}
										}
									}
								}
								JOINT RightRingProximal
								{
									OFFSET -0.066782 0.003329 -0.012831
									CHANNELS 3 Zrotation Xrotation Yrotation
									JOINT RightRingIntermediate
									{
										OFFSET -0.034327 0.000005 -0.000109
										CHANNELS 3 Zrotation Xrotation Yrotation
										JOINT RightRingDistal
										{
											OFFSET -0.019810 0.000003 -0.000063
											CHANNELS 3 Zrotation Xrotation Yrotation
											End Site
											{
												OFFSET -0.019810 0.000003 -0.000063
											}
										}
									}
								}
								JOINT RightThumbProximal
								{
									OFFSET -0.002017 -0.006641 0.017839
									CHANNELS 3 Zrotation Xrotation Yrotation
									JOINT RightThumbIntermediate
									{
										OFFSET -0.032510 -0.005699 0.032803
										CHANNELS 3 Zrotation Xrotation Yrotation
										JOINT RightThumbDistal
										{
											OFFSET -0.020784 -0.005081 0.019013
											CHANNELS 3 Zrotation Xrotation Yrotation
											End Site
											{
												OFFSET -0.020784 -0.005081 0.019013
											}
										}
									}
								}
							}
						}
					}
				}
			}
		}
	}
	JOINT LeftUpperLeg
	{
		OFFSET 0.077122 -0.039594 -0.005714
		CHANNELS 3 Zrotation Xrotation Yrotation
		JOINT LeftLowerLeg
		{
			OFFSET 0.000000 -0.343087 0.003694
			CHANNELS 3 Zrotation Xrotation Yrotation
			JOINT LeftFoot
			{
				OFFSET 0.000000 -0.401029 -0.031329
				CHANNELS 3 Zrotation Xrotation Yrotation
				JOINT LeftToes
				{
					OFFSET 0.000000 -0.001594 0.127952
					CHANNELS 3 Zrotation Xrotation Yrotation
					End Site
					{
						OFFSET -0.000000 -0.001594 0.127952
					}
				}
			}
		}
	}
	JOINT RightUpperLeg
	{
		OFFSET -0.077122 -0.039594 -0.005714
		CHANNELS 3 Zrotation Xrotation Yrotation
		JOINT RightLowerLeg
		{
			OFFSET -0.000000 -0.343087 0.003695
			CHANNELS 3 Zrotation Xrotation Yrotation
			JOINT RightFoot
			{
				OFFSET 0.000000 -0.401029 -0.031326
				CHANNELS 3 Zrotation Xrotation Yrotation
				JOINT RightToes
				{
					OFFSET 0.000000 -0.001593 0.127952
					CHANNELS 3 Zrotation Xrotation Yrotation
					End Site
					{
						OFFSET -0.000000 -0.001593 0.127952
					}
				}
			}
		}
	}
}
MOTION
Frames: 6
Frame Time: 0.016667
0.050164 0.668622 0.315902 0.904000 34.956573 4.644301 -1.626840 -2.985402 1.212246 1.345803 -5.993976 2.652157 0.313999 -4.216270 2.129896 -5.039448 -2.478744 -1.483618 -5.135707 -20.717634 -11.288576 1.024924 0.593236 3.244242 0.713273 0.474602 2.244449 -4.923535 -0.059667 -0.687545 -20.063732 60.866937 -50.826477 0.968415 -0.758314 -36.188521 144.949018 -75.038712 142.382055 -38.995357 -0.647392 -0.227420 -39.665692 -1.017676 -1.517407 -8.261162 -0.295260 -0.251744 -58.721363 -4.436853 -8.701582 -66.667830 0.080017 0.053766 -66.667783 0.079947 0.053826 -35.329529 0.049475 0.018012 -45.808296 0.062684 0.026946 -9.652626 0.014687 0.001339 -46.842376 -1.925400 -2.427491 -54.342713 0.071009 0.037001 -54.342512 0.070964 0.036987 -13.698542 31.529335 24.162981 -1.306024 1.291921 4.392661 -1.415326 1.300533 4.953413 3.472157 -0.061174 0.504261 41.428734 46.078478 36.489637 -1.041886 -0.307015 28.692436 3.633063 31.413334 9.256782 31.942462 -2.884188 0.497822 31.578980 -0.318600 5.576525 31.579571 -0.318577 5.576496 31.118472 4.156748 9.335013 31.713245 0.652142 4.407432 31.713794 0.652173 4.407459 31.915282 -1.335003 1.655237 31.713507 0.652212 4.407682 31.713767 0.652219 4.407636 31.713726 0.651946 4.407300 31.713528 0.652202 4.407660 31.713760 0.652173 4.407676 -6.913616 -4.802197 -13.871459 4.856189 1.366860 -23.927787 3.634773 0.788353 -19.580616 -20.141470 -22.228449 -47.502627 0.001463 34.804257 0.014584 16.062030 -32.360750 31.135547 -0.000000 0.000000 0.000000 -26.617708 -78.267452 -13.276476 -0.066683 61.659874 -0.349618 14.537148 -9.349889 10.229827 -0.000000 -0.000001 -0.000000 
0.049996 0.668613 0.315881 0.869923 34.968062 4.693046 -1.617849 -2.987005 1.208388 1.347052 -6.000295 2.651231 0.207075 -4.171236 2.171268 -5.040870 -2.474736 -1.480551 -5.401742 -20.579949 -11.690367 1.024916 0.593239 3.244232 0.713273 0.474604 2.244450 -4.923550 -0.059661 -0.687563 -20.063739 60.866944 -50.826484 0.968453 -0.758327 -36.188463 147.595293 -74.547301 145.191380 -41.405385 -0.680508 -0.255272 -43.806241 -1.057914 -1.707671 -12.766921 -0.440095 -0.406169 -61.184473 -4.053092 -8.883842 -67.507151 0.080490 0.054959 -67.507199 0.080445 0.055016 -38.605336 0.053321 0.021075 -49.517263 0.066490 0.031153 -11.682716 0.017732 0.001919 -50.901729 -1.742570 -2.557337 -56.906203 0.073201 0.040238 -56.906028 0.073148 0.040256 -13.374257 31.722435 23.454661 -1.649177 1.600123 5.500100 -1.905416 1.701296 6.591633 3.472143 -0.061171 0.504256 41.428728 46.078468 36.489671 -1.041874 -0.307027 28.692446 3.620700 31.439067 9.248067 31.942435 -2.884219 0.497835 31.578973 -0.318600 5.576519 31.579564 -0.318563 5.576502 31.118448 4.156730 9.335015 31.713241 0.652145 4.407441 31.713808 0.652161 4.407460 31.915254 -1.335007 1.655237 31.713504 0.652214 4.407680 31.713757 0.652216 4.407641 31.713709 0.651936 4.407294 31.713559 0.652197 4.407670 31.713757 0.652167 4.407676 -6.913638 -4.802224 -13.871482 4.856192 1.366873 -23.927794 3.634767 0.788337 -19.580619 -20.113293 -22.258905 -47.499072 0.001373 34.830164 0.014439 16.033224 -32.389218 31.091649 -0.000000 0.000000 0.000001 -26.638981 -78.274781 -13.328913 -0.067518 61.665222 -0.348917 14.524508 -9.357565 10.209956 0.000000 -0.000000 -0.000001 
0.049826 0.668604 0.315851 0.835257 34.979690 4.742500 -1.608524 -2.988521 1.204527 1.348303 -6.006582 2.650306 0.089450 -4.119484 2.215248 -5.042295 -2.470808 -1.477476 -5.686891 -20.446586 -12.094003 1.024909 0.593317 3.244250 0.713279 0.474664 2.244460 -4.923549 -0.059659 -0.687555 -20.063679 60.866944 -50.826518 0.968427 -0.758321 -36.188538 150.957180 -74.021396 148.725730 -43.804489 -0.712292 -0.284369 -47.946955 -1.084321 -1.900375 -17.273104 -0.572367 -0.571493 -63.645239 -3.661886 -9.049351 -68.346466 0.080967 0.056160 -68.346616 0.080900 0.056211 -41.881105 0.056947 0.024339 -53.226281 0.069996 0.035617 -13.712794 0.020775 0.002625 -54.960330 -1.551043 -2.673923 -59.469637 0.075260 0.043598 -59.469576 0.075203 0.043586 -13.046559 31.912071 22.743613 -1.986288 1.891466 6.571682 -2.406886 2.087896 8.233626 3.472151 -0.061171 0.504252 41.428673 46.078461 36.489654 -1.041827 -0.307016 28.692450 3.608324 31.464492 9.239616 31.942438 -2.884188 0.497816 31.578987 -0.318591 5.576513 31.579567 -0.318582 5.576478 31.118448 4.156750 9.334998 31.713248 0.652147 4.407421 31.713822 0.652156 4.407454 31.915264 -1.334974 1.655230 31.713490 0.652223 4.407688 31.713743 0.652198 4.407642 31.713729 0.651962 4.407289 31.713525 0.652223 4.407673 31.713760 0.652169 4.407692 -6.913623 -4.802194 -13.871486 4.856206 1.366883 -23.927790 3.634776 0.788339 -19.580626 -20.085544 -22.291239 -47.495100 0.001424 34.858376 0.014282 16.003343 -32.418646 31.046174 -0.000001 0.000001 -0.000000 -26.674588 -78.285825 -13.395909 -0.066616 61.673910 -0.348195 14.511773 -9.364395 10.189753 -0.000000 -0.000001 -0.000001 
0.049655 0.668594 0.315810 0.800488 34.989485 4.790823 -1.600124 -2.991425 1.199763 1.349271 -6.013154 2.649314 -0.037574 -4.061567 2.260718 -5.042946 -2.465748 -1.474596 -5.967384 -20.307035 -12.487662 1.024892 0.593222 3.244267 0.713262 0.474588 2.244458 -4.923548 -0.059655 -0.687555 -20.063747 60.866951 -50.826474 0.968450 -0.758318 -36.188501 154.824051 -73.435216 152.762945 -46.061587 -0.741132 -0.312865 -51.855561 -1.096420 -2.083545 -21.527044 -0.684939 -0.736646 -65.965987 -3.286516 -9.189890 -69.138733 0.081405 0.057286 -69.138959 0.081333 0.057334 -44.973193 0.060144 0.027685 -56.727286 0.073040 0.040008 -15.629023 0.023595 0.003387 -58.790594 -1.363170 -2.771205 -61.889334 0.077045 0.046834 -61.889416 0.076993 0.046816 -12.734130 32.087897 22.070042 -2.301105 2.153738 7.558677 -2.890370 2.439486 9.786969 3.472151 -0.061169 0.504250 41.428690 46.078526 36.489657 -1.041865 -0.307040 28.692481 3.593004 31.486243 9.232445 31.942459 -2.884186 0.497815 31.578966 -0.318581 5.576517 31.579561 -0.318582 5.576493 31.118461 4.156765 9.335003 31.713255 0.652153 4.407434 31.713825 0.652144 4.407456 31.915278 -1.334975 1.655227 31.713490 0.652213 4.407660 31.713757 0.652225 4.407634 31.713719 0.651972 4.407297 31.713552 0.652192 4.407659 31.713760 0.652193 4.407675 -6.913618 -4.802187 -13.871476 4.856195 1.366878 -23.927783 3.634772 0.788339 -19.580602 -20.057769 -22.324260 -47.488734 0.001351 34.889368 0.014121 15.972787 -32.449201 30.999620 0.000000 0.000000 -0.000001 -26.690766 -78.293639 -13.443633 -0.067244 61.678685 -0.347517 14.499025 -9.369975 10.169237 -0.000000 -0.000001 0.000001 
0.049484 0.668585 0.315758 0.765326 34.999430 4.839752 -1.591335 -2.994239 1.194961 1.350239 -6.019720 2.648326 -0.172115 -3.997548 2.306689 -5.043654 -2.460799 -1.471703 -6.255340 -20.184829 -12.864502 1.024930 0.593218 3.244271 0.713279 0.474588 2.244479 -4.923549 -0.059661 -0.687558 -20.063684 60.866923 -50.826474 0.968418 -0.758323 -36.188555 158.969388 -72.762811 157.067618 -48.045426 -0.765488 -0.338861 -55.299776 -1.096706 -2.245334 -25.275895 -0.773756 -0.888760 -68.009573 -2.951239 -9.301019 -69.836820 0.081761 0.058304 -69.837154 0.081676 0.058335 -47.697933 0.062828 0.030714 -59.812301 0.075505 0.044041 -17.317615 0.026070 0.004140 -62.165308 -1.192528 -2.846388 -64.021542 0.078513 0.049751 -64.021733 0.078455 0.049730 -12.456290 32.240197 21.474449 -2.576514 2.375812 8.412058 -3.324259 2.738301 11.158553 3.472150 -0.061170 0.504253 41.428683 46.078468 36.489654 -1.041845 -0.307016 28.692446 3.577754 31.507721 9.225509 31.942435 -2.884201 0.497824 31.578980 -0.318573 5.576522 31.579567 -0.318581 5.576505 31.118461 4.156749 9.334995 31.713268 0.652157 4.407451 31.713811 0.652153 4.407453 31.915264 -1.335007 1.655220 31.713501 0.652223 4.407667 31.713753 0.652212 4.407647 31.713709 0.651953 4.407293 31.713562 0.652215 4.407664 31.713757 0.652170 4.407663 -6.913626 -4.802196 -13.871454 4.856192 1.366860 -23.927800 3.634766 0.788345 -19.580624 -20.030645 -22.359333 -47.481938 0.001300 34.922525 0.013953 15.941136 -32.480439 30.951374 -0.000000 0.000000 -0.000000 -26.719306 -78.304314 -13.503888 -0.066650 61.685583 -0.346754 14.486314 -9.374409 10.148544 -0.000000 0.000001 0.000002 
0.049311 0.668575 0.315694 0.730844 35.007598 4.887434 -1.584376 -2.999271 1.189936 1.350957 -6.026557 2.647298 -0.312846 -3.927972 2.352103 -5.043906 -2.454675 -1.469139 -6.529333 -20.063597 -13.213312 1.024934 0.593210 3.244253 0.713294 0.474554 2.244452 -4.923541 -0.059658 -0.687554 -20.063740 60.866964 -50.826491 0.968477 -0.758320 -36.188480 163.221987 -71.998103 161.458965 -49.624893 -0.784048 -0.360314 -58.047415 -1.089970 -2.374236 -28.266767 -0.837320 -1.014064 -69.638935 -2.680827 -9.381126 -70.393794 0.082040 0.059103 -70.394163 0.081976 0.059155 -49.871559 0.065063 0.033070 -62.273396 0.077303 0.047355 -18.664684 0.028019 0.004783 -64.857175 -1.053185 -2.899190 -65.722525 0.079604 0.052104 -65.722833 0.079534 0.052105 -12.232771 32.360029 20.997651 -2.795017 2.547174 9.082620 -3.675543 2.969228 12.254572 3.472151 -0.061164 0.504252 41.428751 46.078485 36.489650 -1.041905 -0.307042 28.692399 3.559804 31.525448 9.218860 31.942435 -2.884204 0.497828 31.578953 -0.318585 5.576502 31.579578 -0.318573 5.576506 31.118451 4.156733 9.335015 31.713241 0.652143 4.407438 31.713825 0.652145 4.407452 31.915268 -1.335000 1.655235 31.713511 0.652198 4.407655 31.713753 0.652237 4.407657 31.713719 0.651933 4.407294 31.713545 0.652207 4.407649 31.713770 0.652181 4.407685 -6.913624 -4.802212 -13.871470 4.856188 1.366878 -23.927794 3.634762 0.788361 -19.580610 -20.004289 -22.394684 -47.473052 0.001467 34.957858 0.013780 15.908656 -32.512431 30.901876 -0.000000 0.000000 0.000001 -26.739610 -78.313911 -13.555283 -0.066433 61.691225 -0.346068 14.473656 -9.377492 10.127642 -0.000001 -0.000000 0.000002 
